<svg width="100" height="100" viewBox="0 0 100 100" fill="none" xmlns="http://www.w3.org/2000/svg">
<path fill-rule="evenodd" clip-rule="evenodd" d="M50 97.4874C76.2266 97.4874 97.4874 76.2266 97.4874 50C97.4874 23.7734 76.2266 2.51256 50 2.51256C23.7734 2.51256 2.51256 23.7734 2.51256 50C2.51256 76.2266 23.7734 97.4874 50 97.4874ZM50 100C77.6142 100 100 77.6142 100 50C100 22.3858 77.6142 0 50 0C22.3858 0 0 22.3858 0 50C0 77.6142 22.3858 100 50 100Z" fill="#FFD000"/>
<g filter="url(#filter0_d_47_155)">
<path d="M48.0978 20.6782C48.6965 18.8356 51.3033 18.8356 51.902 20.6782L57.4484 37.7481C57.7161 38.5721 58.484 39.13 59.3505 39.13H77.2988C79.2362 39.13 80.0418 41.6093 78.4744 42.7481L63.9539 53.2978C63.2529 53.8071 62.9596 54.7098 63.2273 55.5339L68.7737 72.6038C69.3724 74.4464 67.2634 75.9786 65.696 74.8398L51.1755 64.2901C50.4745 63.7808 49.5253 63.7808 48.8243 64.2901L34.3039 74.8398C32.7364 75.9786 30.6275 74.4464 31.2262 72.6038L36.7725 55.5339C37.0402 54.7098 36.7469 53.8071 36.046 53.2978L21.5255 42.7481C19.958 41.6093 20.7636 39.13 22.701 39.13H40.6494C41.5158 39.13 42.2837 38.5721 42.5515 37.7481L48.0978 20.6782Z" fill="#FFD000"/>
</g>
<defs>
<filter id="filter0_d_47_155" x="19.6972" y="19.2962" width="66.6054" height="63.9346" filterUnits="userSpaceOnUse" color-interpolation-filters="sRGB">
<feFlood flood-opacity="0" result="BackgroundImageFix"/>
<feColorMatrix in="SourceAlpha" type="matrix" values="0 0 0 0 0 0 0 0 0 0 0 0 0 0 0 0 0 0 127 0" result="hardAlpha"/>
<feOffset dx="3" dy="4"/>
<feGaussianBlur stdDeviation="2"/>
<feComposite in2="hardAlpha" operator="out"/>
<feColorMatrix type="matrix" values="0 0 0 0 0 0 0 0 0 0 0 0 0 0 0 0 0 0 0.25 0"/>
<feBlend mode="normal" in2="BackgroundImageFix" result="effect1_dropShadow_47_155"/>
<feBlend mode="normal" in="SourceGraphic" in2="effect1_dropShadow_47_155" result="shape"/>
</filter>
</defs>
</svg>
