<svg width="62" height="62" viewBox="0 0 62 62" fill="none" xmlns="http://www.w3.org/2000/svg">
<g id="Frame 4994">
<circle id="Ellipse 16" cx="31" cy="31" r="31" fill="#1877F2"/>
<g id="&#240;&#159;&#166;&#134; icon &#34;camera&#34;">
<path id="Vector" d="M18 40.1034V27.5388C18 26.1509 19.1251 25.0258 20.5129 25.0258H21.1412C21.9321 25.0258 22.6769 24.6534 23.1515 24.0207L25.9408 20.3016C26.0832 20.1117 26.3067 20 26.5439 20H34.5853C34.8226 20 35.046 20.1117 35.1884 20.3016L37.9777 24.0207C38.4523 24.6534 39.1971 25.0258 39.9881 25.0258H40.6163C42.0042 25.0258 43.1292 26.1509 43.1292 27.5388V40.1034C43.1292 41.4913 42.0042 42.6163 40.6163 42.6163H20.5129C19.1251 42.6163 18 41.4913 18 40.1034Z" stroke="white" stroke-width="3" stroke-linecap="round" stroke-linejoin="round"/>
<path id="Vector_2" d="M30.5646 37.5903C33.3402 37.5903 35.5904 35.3401 35.5904 32.5644C35.5904 29.7888 33.3402 27.5386 30.5646 27.5386C27.7889 27.5386 25.5388 29.7888 25.5388 32.5644C25.5388 35.3401 27.7889 37.5903 30.5646 37.5903Z" stroke="white" stroke-width="3" stroke-linecap="round" stroke-linejoin="round"/>
</g>
</g>
</svg>
