<svg width="121" height="106" viewBox="0 0 121 106" fill="none" xmlns="http://www.w3.org/2000/svg">
<g id="Frame 84">
<rect id="Rectangle 145" x="25.0839" y="4.72046" width="72.5157" height="101.279" fill="#823FAB"/>
<rect id="Rectangle 151" x="25.0839" y="8.15356" width="72.5157" height="8.583" fill="#905EAF"/>
<rect id="Rectangle 152" x="25.0839" y="93.9839" width="72.5157" height="8.583" fill="#905EAF"/>
<rect id="Rectangle 153" x="25.0839" y="73.3843" width="72.5157" height="8.583" fill="#905EAF"/>
<rect id="Rectangle 154" x="25.0839" y="27.3682" width="72.5157" height="8.583" fill="#905EAF"/>
<rect id="Rectangle 146" x="3.16202" y="4.7207" width="20.2369" height="53.2146" fill="#D28800"/>
<rect id="Rectangle 147" x="9.90767" y="56.2185" width="13.4913" height="44.6316" fill="#D28800"/>
<rect id="Rectangle 148" x="97.5988" y="4.72046" width="20.2369" height="53.2146" fill="#D28800"/>
<rect id="Rectangle 149" x="97.5988" y="56.2185" width="13.4913" height="44.6316" fill="#D28800"/>
<rect id="Rectangle 150" x="23.4012" y="51.0691" width="74.2021" height="10.2996" fill="#FBB603"/>
<mask id="mask0_4_1031" style="mask-type:alpha" maskUnits="userSpaceOnUse" x="0" y="0" width="121" height="106">
<path id="Vector" d="M116.679 0H99.3929C98.2468 0 97.1476 0.463244 96.3372 1.28843C95.5265 2.1132 95.0714 3.23211 95.0714 4.39879V8.79757H25.9286V4.39879C25.9286 3.23219 25.4735 2.11329 24.6628 1.28843C23.8525 0.463197 22.7533 0 21.6071 0H4.32143C3.17535 0 2.07613 0.463244 1.26578 1.28843C0.455052 2.1132 0 3.23211 0 4.39879V57.1842C0 58.3508 0.455098 59.4697 1.26578 60.2946C2.07604 61.1198 3.17527 61.583 4.32143 61.583V101.172C4.32143 102.339 4.77653 103.458 5.5872 104.282C6.39747 105.108 7.4967 105.571 8.64286 105.571H112.357C113.503 105.571 114.602 105.108 115.413 104.282C116.224 103.458 116.679 102.339 116.679 101.172V61.583C117.825 61.583 118.924 61.1198 119.734 60.2946C120.545 59.4698 121 58.3509 121 57.1842V4.39879C121 3.23219 120.545 2.11329 119.734 1.28843C118.924 0.463197 117.825 0 116.679 0ZM103.714 8.79757H112.357V52.7854H103.714V8.79757ZM95.0714 17.5951V52.7854H77.7857V48.3866C77.7857 46.0534 76.8751 43.8155 75.2541 42.1661C73.6336 40.5161 71.4349 39.5891 69.1429 39.5891H51.8571C49.5649 39.5891 47.3664 40.516 45.746 42.1661C44.125 43.8155 43.2143 46.0535 43.2143 48.3866V52.7854H25.9286V17.5951H95.0714ZM69.1429 65.9818H51.8571V48.3866H69.1429V65.9818ZM8.64286 8.79757H17.2857V52.7854H8.64286V8.79757ZM12.9643 61.583H21.6071V96.7733H12.9643V61.583ZM30.25 61.583H43.2143V65.9818C43.2143 68.315 44.1249 70.5529 45.746 72.2024C47.3664 73.8523 49.5651 74.7794 51.8571 74.7794H56.1786V79.1781C56.1786 80.7497 57.0023 82.2018 58.3393 82.9877C59.6763 83.7735 61.3237 83.7735 62.6607 82.9877C63.9977 82.2019 64.8214 80.7499 64.8214 79.1781V74.7794H69.1429C71.4351 74.7794 73.6336 73.8524 75.2541 72.2024C76.875 70.5529 77.7857 68.3149 77.7857 65.9818V61.583H90.75V96.7733H30.25V61.583ZM108.036 96.7733H99.3929V61.583H108.036V96.7733Z" fill="black"/>
</mask>
<g mask="url(#mask0_4_1031)">
<path id="Union" fill-rule="evenodd" clip-rule="evenodd" d="M26.8687 -33.0444H-25.5093V61.3685H-22.2338V147.198H30.1442V52.7853H26.8687V-33.0444Z" fill="#FBB603"/>
<path id="Union_2" fill-rule="evenodd" clip-rule="evenodd" d="M146.507 -33.0444H92.5418V61.3685H95.9166V147.198H149.882V52.7853H146.507V-33.0444Z" fill="#FBB603"/>
</g>
</g>
</svg>
